<mxfile host="app.diagrams.net" modified="2024-02-18T12:22:27.380Z" agent="Mozilla/5.0 (Windows NT 10.0; Win64; x64; rv:122.0) Gecko/20100101 Firefox/122.0" etag="31uejSH9iHKUPI5ROHJV" version="23.1.2" type="google">
  <diagram name="Page-1" id="5f0bae14-7c28-e335-631c-24af17079c00">
    <mxGraphModel grid="1" page="1" gridSize="10" guides="1" tooltips="1" connect="1" arrows="1" fold="1" pageScale="1" pageWidth="1100" pageHeight="850" background="none" math="0" shadow="0">
      <root>
        <mxCell id="0" />
        <mxCell id="1" parent="0" />
        <mxCell id="EtwHlYc7nydxbufBa8ut-3" value="" style="group" connectable="0" vertex="1" parent="1">
          <mxGeometry x="50" y="20" width="330" height="220" as="geometry" />
        </mxCell>
        <mxCell id="39150e848f15840c-1" value="Apache+PHP" style="verticalAlign=top;align=left;spacingTop=8;spacingLeft=2;spacingRight=12;shape=cube;size=10;direction=south;fontStyle=4;html=1;rounded=0;shadow=0;comic=0;labelBackgroundColor=none;strokeWidth=1;fontFamily=Verdana;fontSize=12;movable=1;resizable=1;rotatable=1;deletable=1;editable=1;locked=0;connectable=1;" vertex="1" parent="EtwHlYc7nydxbufBa8ut-3">
          <mxGeometry width="330" height="220" as="geometry" />
        </mxCell>
        <mxCell id="39150e848f15840c-4" value="&lt;div&gt;SQLite&lt;/div&gt;&lt;div&gt;database&lt;br&gt;&lt;/div&gt;" style="html=1;rounded=0;shadow=0;comic=0;labelBackgroundColor=none;strokeWidth=1;fontFamily=Verdana;fontSize=12;align=center;movable=1;resizable=1;rotatable=1;deletable=1;editable=1;locked=0;connectable=1;" vertex="1" parent="EtwHlYc7nydxbufBa8ut-3">
          <mxGeometry x="20" y="125" width="110" height="50" as="geometry" />
        </mxCell>
        <mxCell id="39150e848f15840c-5" value="APACHE" style="shape=component;align=left;spacingLeft=36;rounded=0;shadow=0;comic=0;labelBackgroundColor=none;strokeWidth=1;fontFamily=Verdana;fontSize=12;html=1;movable=1;resizable=1;rotatable=1;deletable=1;editable=1;locked=0;connectable=1;" vertex="1" parent="EtwHlYc7nydxbufBa8ut-3">
          <mxGeometry x="190" y="65" width="120" height="60" as="geometry" />
        </mxCell>
        <mxCell id="39150e848f15840c-6" value="" style="ellipse;whiteSpace=wrap;html=1;rounded=0;shadow=0;comic=0;labelBackgroundColor=none;strokeWidth=1;fontFamily=Verdana;fontSize=12;align=center;movable=1;resizable=1;rotatable=1;deletable=1;editable=1;locked=0;connectable=1;" vertex="1" parent="EtwHlYc7nydxbufBa8ut-3">
          <mxGeometry x="240" y="160" width="20" height="20" as="geometry" />
        </mxCell>
        <mxCell id="39150e848f15840c-14" style="edgeStyle=elbowEdgeStyle;rounded=0;html=1;labelBackgroundColor=none;startArrow=none;startFill=0;startSize=8;endArrow=none;endFill=0;endSize=16;fontFamily=Verdana;fontSize=12;movable=1;resizable=1;rotatable=1;deletable=1;editable=1;locked=0;connectable=1;" edge="1" parent="EtwHlYc7nydxbufBa8ut-3" source="39150e848f15840c-6" target="39150e848f15840c-5">
          <mxGeometry relative="1" as="geometry" />
        </mxCell>
        <mxCell id="39150e848f15840c-15" style="edgeStyle=orthogonalEdgeStyle;rounded=0;html=1;labelBackgroundColor=none;startArrow=none;startFill=0;startSize=8;endArrow=open;endFill=0;endSize=16;fontFamily=Verdana;fontSize=12;dashed=1;entryX=1;entryY=0.25;entryDx=0;entryDy=0;movable=1;resizable=1;rotatable=1;deletable=1;editable=1;locked=0;connectable=1;" edge="1" parent="EtwHlYc7nydxbufBa8ut-3" source="39150e848f15840c-5" target="EtwHlYc7nydxbufBa8ut-1">
          <mxGeometry relative="1" as="geometry">
            <Array as="points">
              <mxPoint x="230" y="50" />
              <mxPoint x="160" y="50" />
              <mxPoint x="160" y="53" />
            </Array>
          </mxGeometry>
        </mxCell>
        <mxCell id="EtwHlYc7nydxbufBa8ut-1" value="PHP" style="html=1;rounded=0;shadow=0;comic=0;labelBackgroundColor=none;strokeWidth=1;fontFamily=Verdana;fontSize=12;align=center;movable=1;resizable=1;rotatable=1;deletable=1;editable=1;locked=0;connectable=1;" vertex="1" parent="EtwHlYc7nydxbufBa8ut-3">
          <mxGeometry x="20" y="40" width="110" height="50" as="geometry" />
        </mxCell>
        <mxCell id="EtwHlYc7nydxbufBa8ut-2" style="edgeStyle=orthogonalEdgeStyle;rounded=0;html=1;labelBackgroundColor=none;startArrow=none;startFill=0;startSize=8;endArrow=open;endFill=0;endSize=16;fontFamily=Verdana;fontSize=12;dashed=1;entryX=0.5;entryY=0;entryDx=0;entryDy=0;exitX=0.5;exitY=1;exitDx=0;exitDy=0;movable=1;resizable=1;rotatable=1;deletable=1;editable=1;locked=0;connectable=1;" edge="1" parent="EtwHlYc7nydxbufBa8ut-3" source="EtwHlYc7nydxbufBa8ut-1" target="39150e848f15840c-4">
          <mxGeometry relative="1" as="geometry">
            <Array as="points">
              <mxPoint x="75" y="100" />
              <mxPoint x="75" y="100" />
            </Array>
            <mxPoint x="240" y="75" as="sourcePoint" />
            <mxPoint x="140" y="63" as="targetPoint" />
          </mxGeometry>
        </mxCell>
        <mxCell id="EtwHlYc7nydxbufBa8ut-6" value="" style="group" connectable="0" vertex="1" parent="1">
          <mxGeometry x="630" y="20" width="330" height="220" as="geometry" />
        </mxCell>
        <mxCell id="39150e848f15840c-2" value="Windows" style="verticalAlign=top;align=left;spacingTop=8;spacingLeft=2;spacingRight=12;shape=cube;size=10;direction=south;fontStyle=4;html=1;rounded=0;shadow=0;comic=0;labelBackgroundColor=none;strokeWidth=1;fontFamily=Verdana;fontSize=12" vertex="1" parent="EtwHlYc7nydxbufBa8ut-6">
          <mxGeometry width="330" height="220" as="geometry" />
        </mxCell>
        <mxCell id="39150e848f15840c-7" value="ОС" style="shape=component;align=left;spacingLeft=36;rounded=0;shadow=0;comic=0;labelBackgroundColor=none;strokeWidth=1;fontFamily=Verdana;fontSize=12;html=1;" vertex="1" parent="EtwHlYc7nydxbufBa8ut-6">
          <mxGeometry x="30" y="52.5" width="120" height="60" as="geometry" />
        </mxCell>
        <mxCell id="39150e848f15840c-8" value="Принтер" style="html=1;rounded=0;shadow=0;comic=0;labelBackgroundColor=none;strokeWidth=1;fontFamily=Verdana;fontSize=12;align=center;" vertex="1" parent="EtwHlYc7nydxbufBa8ut-6">
          <mxGeometry x="190" y="57.5" width="110" height="50" as="geometry" />
        </mxCell>
        <mxCell id="39150e848f15840c-9" value="" style="ellipse;whiteSpace=wrap;html=1;rounded=0;shadow=0;comic=0;labelBackgroundColor=none;strokeWidth=1;fontFamily=Verdana;fontSize=12;align=center;" vertex="1" parent="EtwHlYc7nydxbufBa8ut-6">
          <mxGeometry x="90" y="147.5" width="20" height="20" as="geometry" />
        </mxCell>
        <mxCell id="39150e848f15840c-13" style="edgeStyle=elbowEdgeStyle;rounded=0;html=1;labelBackgroundColor=none;startArrow=none;startFill=0;startSize=8;endArrow=none;endFill=0;endSize=16;fontFamily=Verdana;fontSize=12;" edge="1" parent="EtwHlYc7nydxbufBa8ut-6" source="39150e848f15840c-9" target="39150e848f15840c-7">
          <mxGeometry relative="1" as="geometry" />
        </mxCell>
        <mxCell id="39150e848f15840c-16" style="edgeStyle=orthogonalEdgeStyle;rounded=0;html=1;dashed=1;labelBackgroundColor=none;startArrow=none;startFill=0;startSize=8;endArrow=open;endFill=0;endSize=16;fontFamily=Verdana;fontSize=12;" edge="1" parent="EtwHlYc7nydxbufBa8ut-6" source="39150e848f15840c-7" target="39150e848f15840c-8">
          <mxGeometry relative="1" as="geometry" />
        </mxCell>
        <mxCell id="39150e848f15840c-11" style="edgeStyle=none;rounded=0;html=1;dashed=1;labelBackgroundColor=none;startArrow=none;startFill=0;startSize=8;endArrow=open;endFill=0;endSize=16;fontFamily=Verdana;fontSize=12;entryX=0.5;entryY=1;entryDx=0;entryDy=0;exitX=0;exitY=0;exitDx=0;exitDy=250;exitPerimeter=0;" edge="1" parent="1" source="39150e848f15840c-3" target="39150e848f15840c-4">
          <mxGeometry relative="1" as="geometry" />
        </mxCell>
        <mxCell id="39150e848f15840c-12" style="edgeStyle=none;rounded=0;html=1;dashed=1;labelBackgroundColor=none;startArrow=none;startFill=0;startSize=8;endArrow=open;endFill=0;endSize=16;fontFamily=Verdana;fontSize=12;" edge="1" parent="1" source="39150e848f15840c-3" target="39150e848f15840c-9">
          <mxGeometry relative="1" as="geometry" />
        </mxCell>
        <mxCell id="EtwHlYc7nydxbufBa8ut-5" value="" style="group" connectable="0" vertex="1" parent="1">
          <mxGeometry x="530" y="370" width="260" height="150" as="geometry" />
        </mxCell>
        <mxCell id="39150e848f15840c-3" value="ПО АСОИ" style="verticalAlign=top;align=left;spacingTop=8;spacingLeft=2;spacingRight=12;shape=cube;size=10;direction=south;fontStyle=4;html=1;rounded=0;shadow=0;comic=0;labelBackgroundColor=none;strokeWidth=1;fontFamily=Verdana;fontSize=12" vertex="1" parent="EtwHlYc7nydxbufBa8ut-5">
          <mxGeometry width="260" height="150" as="geometry" />
        </mxCell>
        <mxCell id="39150e848f15840c-10" value="&lt;div&gt;Программа&lt;/div&gt;&lt;div&gt;&amp;nbsp;&quot;MInvent&quot;&lt;/div&gt;" style="shape=component;align=left;spacingLeft=36;rounded=0;shadow=0;comic=0;labelBackgroundColor=none;strokeWidth=1;fontFamily=Verdana;fontSize=12;html=1;" vertex="1" parent="EtwHlYc7nydxbufBa8ut-5">
          <mxGeometry x="70" y="45" width="120" height="60" as="geometry" />
        </mxCell>
        <mxCell id="EtwHlYc7nydxbufBa8ut-10" style="edgeStyle=none;rounded=0;html=1;dashed=1;labelBackgroundColor=none;startArrow=none;startFill=0;startSize=8;endArrow=open;endFill=0;endSize=16;fontFamily=Verdana;fontSize=12;" edge="1" parent="1" source="EtwHlYc7nydxbufBa8ut-9" target="39150e848f15840c-6">
          <mxGeometry relative="1" as="geometry">
            <mxPoint x="610" y="427" as="sourcePoint" />
            <mxPoint x="135" y="205" as="targetPoint" />
          </mxGeometry>
        </mxCell>
        <mxCell id="EtwHlYc7nydxbufBa8ut-11" value="" style="group" connectable="0" vertex="1" parent="1">
          <mxGeometry x="30" y="410" width="290" height="170" as="geometry" />
        </mxCell>
        <mxCell id="EtwHlYc7nydxbufBa8ut-4" value="Web Browser" style="verticalAlign=top;align=left;spacingTop=8;spacingLeft=2;spacingRight=12;shape=cube;size=10;direction=south;fontStyle=4;html=1;rounded=0;shadow=0;comic=0;labelBackgroundColor=none;strokeWidth=1;fontFamily=Verdana;fontSize=12" vertex="1" parent="EtwHlYc7nydxbufBa8ut-11">
          <mxGeometry width="290" height="170" as="geometry" />
        </mxCell>
        <mxCell id="EtwHlYc7nydxbufBa8ut-9" value="Chrome" style="shape=component;align=left;spacingLeft=36;rounded=0;shadow=0;comic=0;labelBackgroundColor=none;strokeWidth=1;fontFamily=Verdana;fontSize=12;html=1;" vertex="1" parent="EtwHlYc7nydxbufBa8ut-11">
          <mxGeometry x="85" y="55" width="120" height="60" as="geometry" />
        </mxCell>
        <mxCell id="EtwHlYc7nydxbufBa8ut-12" value="Обмен данными" style="text;html=1;align=center;verticalAlign=middle;resizable=0;points=[];autosize=1;strokeColor=none;fillColor=none;" vertex="1" parent="1">
          <mxGeometry x="110" y="350" width="120" height="30" as="geometry" />
        </mxCell>
        <mxCell id="EtwHlYc7nydxbufBa8ut-13" value="Обмен данными" style="text;html=1;align=center;verticalAlign=middle;resizable=0;points=[];autosize=1;strokeColor=none;fillColor=none;" vertex="1" parent="1">
          <mxGeometry x="460" y="320" width="120" height="30" as="geometry" />
        </mxCell>
        <mxCell id="EtwHlYc7nydxbufBa8ut-14" value="&lt;div&gt;Печать&lt;/div&gt;" style="text;html=1;align=center;verticalAlign=middle;resizable=0;points=[];autosize=1;strokeColor=none;fillColor=none;" vertex="1" parent="1">
          <mxGeometry x="700" y="280" width="60" height="30" as="geometry" />
        </mxCell>
        <mxCell id="EtwHlYc7nydxbufBa8ut-15" value="&lt;div&gt;Печать&lt;/div&gt;" style="text;html=1;align=center;verticalAlign=middle;resizable=0;points=[];autosize=1;strokeColor=none;fillColor=none;" vertex="1" parent="1">
          <mxGeometry x="540" y="230" width="60" height="30" as="geometry" />
        </mxCell>
        <mxCell id="EtwHlYc7nydxbufBa8ut-16" style="edgeStyle=none;rounded=0;html=1;dashed=1;labelBackgroundColor=none;startArrow=none;startFill=0;startSize=8;endArrow=open;endFill=0;endSize=16;fontFamily=Verdana;fontSize=12;entryX=0;entryY=1;entryDx=0;entryDy=0;exitX=0;exitY=0;exitDx=0;exitDy=0;exitPerimeter=0;" edge="1" parent="1" source="EtwHlYc7nydxbufBa8ut-4" target="39150e848f15840c-9">
          <mxGeometry relative="1" as="geometry">
            <mxPoint x="220" y="460" as="sourcePoint" />
            <mxPoint x="306" y="209" as="targetPoint" />
          </mxGeometry>
        </mxCell>
      </root>
    </mxGraphModel>
  </diagram>
</mxfile>
